<?xml version="1.0" encoding="UTF-8" standalone="no"?><!DOCTYPE svg PUBLIC "-//W3C//DTD SVG 1.1//EN" "http://www.w3.org/Graphics/SVG/1.1/DTD/svg11.dtd"><svg width="100%" height="100%" viewBox="0 0 251 123" version="1.1" xmlns="http://www.w3.org/2000/svg" xmlns:xlink="http://www.w3.org/1999/xlink" xml:space="preserve" xmlns:serif="http://www.serif.com/" style="fill-rule:evenodd;clip-rule:evenodd;stroke-linejoin:round;stroke-miterlimit:2;"><rect id="k8lnnlogo" x="0" y="0" width="251" height="123" style="fill:none;"/><g id="k8lnnlogo1" serif:id="k8lnnlogo"><path d="M115.749,102.848c-0.032,-0.408 -0.026,-0.82 -0.03,-1.232c-0.115,-13.427 -0.233,-26.857 -0.214,-40.287c0.02,-12.401 -0.112,-24.801 -0.256,-37.204c-0.035,-3.036 -0.3,-6.066 -0.268,-9.108c0.011,-1.034 0.123,-2.046 0.475,-3.004c0.405,-1.101 1.087,-1.636 2.181,-1.591c1.938,0.08 7.81,0.881 9.142,2.467c1.055,1.256 1.21,2.844 1.245,4.463c0.043,2.136 0.052,4.27 0.091,6.404c0.168,8.826 0.308,17.655 0.524,26.482c0.367,14.946 0.414,29.892 0.609,44.84c0.012,0.994 0.008,2.014 0.099,3.005c0.155,1.713 -0.139,1.317 1.241,1.91c1.942,0.839 5.218,0.763 7.294,0.647c3.146,-0.173 6.263,-0.978 9.475,-1.159c2.275,-0.129 4.53,0.265 6.796,0.128c2.894,-0.177 5.7,-0.592 8.641,-0.614c4.978,-0.039 9.638,-0.373 14.497,-0.833c3.654,-0.346 7.355,-0.248 11.032,-0.278c3.36,-0.03 6.552,-0.591 9.921,-0.621c6.275,-0.054 12.55,-0.182 18.824,-0.397c2.456,-0.082 4.916,-0.639 7.376,-0.482c2.383,0.152 4.666,0.672 7.082,0.822c2.774,0.171 12.01,-1.05 11.199,3.186c-0.195,1.027 -0.84,1.812 -1.74,1.921c-1.215,0.144 -2.438,0.207 -3.66,0.261c-1.894,0.082 -9.245,1.823 -9.245,1.823c0,-0 8.112,1.731 10.452,1.664c0.513,-0.015 1.008,0.026 1.471,0.288c0.913,0.516 1.362,1.61 1.148,2.793c-0.179,0.988 -0.968,1.797 -1.905,1.845c-1.834,0.09 -3.666,0.155 -5.501,0.192c-11.977,0.227 -23.956,0.407 -35.929,0.68c-14.243,0.319 -28.484,0.615 -42.726,0.858c-2.81,0.05 -5.553,0.235 -8.313,0.492c-3.105,0.291 -6.241,-0.424 -9.37,-0.039c-3.511,0.437 -6.593,0.082 -10.099,0.173c-0.216,0.007 -0.432,0.009 -0.648,0.013c-5.95,0.052 -10.775,-8.722 -10.911,-10.508" style="fill:#ffc711;"/><path d="M214.899,60.997c-0.263,-3.275 -0.155,-6.562 -0.451,-9.834c-0.022,-0.264 -0.028,-0.529 -0.039,-0.792c-0.149,-3.658 -0.226,-7.32 -0.468,-10.972c-0.27,-4.138 -0.552,-8.278 -0.978,-12.408c-0.414,-4.057 -0.899,-8.097 -1.638,-12.117c-0.181,-0.999 -0.204,-2.028 -0.213,-3.045c-0.013,-1.157 0.667,-1.841 1.994,-1.944c1.306,-0.102 2.615,-0.115 3.925,0.12c2.176,0.395 3.512,1.528 4.129,3.41c0.382,1.163 0.619,2.353 0.738,3.548c0.254,2.553 0.501,5.105 0.673,7.665c0.291,4.288 0.662,8.574 0.889,12.868c0.199,3.73 0.389,7.458 0.526,11.189c0.16,4.262 0.227,8.527 0.436,12.787c0.264,5.427 0.467,10.854 0.665,16.287c0.089,2.451 0.117,4.902 0.212,7.351c0.032,0.84 -0.078,1.669 -0.27,2.474c-0.343,1.431 -1.103,2.628 -2.831,3.068c-1.794,0.462 -3.447,0.253 -4.847,-0.919c-0.937,-0.781 -1.608,-1.746 -2.221,-2.741c-1.597,-2.594 -2.656,-5.382 -3.585,-8.207c-1.605,-4.883 -3.469,-9.693 -5.116,-14.566c-2.048,-6.064 -4.051,-12.139 -6.098,-18.202c-0.95,-2.815 -1.964,-5.614 -2.949,-8.419c-0.038,-0.115 -0.108,-0.195 -0.422,-0.253c0.002,0.287 0.006,0.561 0.006,0.836c-0.006,2.529 0.06,5.062 -0.032,7.587c-0.229,6.228 0.017,12.456 -0.13,18.682c-0.155,6.493 0.028,12.983 0.011,19.476c-0.002,0.868 0.002,1.733 -0.261,2.583c-0.445,1.441 -1.139,1.917 -2.81,1.906c-3.423,-0.022 -5.671,-1.917 -5.85,-4.949c-0.041,-0.68 -0.033,-1.36 -0.037,-2.037c-0.17,-22.2 -0.341,-44.397 -0.503,-66.594c-0.004,-0.639 -0.054,-1.277 0.136,-1.912c0.393,-1.322 0.967,-1.811 2.482,-1.825c1.625,-0.016 3.202,0.232 4.646,0.96c1.539,0.772 2.521,1.875 2.653,3.487c0.023,0.31 0.114,0.596 0.278,0.861c2.892,4.728 4.741,9.827 6.578,14.92c3.402,9.433 6.722,18.888 10.084,28.331c0.162,0.457 0.252,0.945 0.688,1.34Z" style="fill:#f48a81;"/><path d="M167.138,61.396c-0.282,-3.14 -0.142,-6.278 -0.442,-9.398c-0.037,-0.375 -0.037,-0.753 -0.052,-1.131c-0.149,-3.619 -0.227,-7.242 -0.46,-10.857c-0.308,-4.78 -0.69,-9.555 -1.137,-14.327c-0.324,-3.453 -0.835,-6.891 -1.478,-10.311c-0.183,-0.999 -0.235,-2.027 -0.244,-3.043c-0.013,-1.297 0.678,-1.949 2.149,-2.054c1.396,-0.1 2.799,-0.096 4.172,0.213c1.935,0.436 3.138,1.548 3.716,3.235c0.397,1.159 0.641,2.348 0.755,3.546c0.231,2.44 0.507,4.877 0.661,7.326c0.198,3.197 0.5,6.39 0.757,9.584c0.013,0.151 0.026,0.3 0.03,0.451c0.134,3.092 0.251,6.183 0.408,9.273c0.315,6.18 0.473,12.365 0.714,18.551c0.096,2.373 0.097,4.755 0.29,7.123c0.278,3.429 0.172,6.867 0.367,10.294c0.107,1.924 0.123,3.845 0.179,5.768c0.026,0.874 -0.108,1.731 -0.352,2.572c-0.879,3.045 -4.873,4.116 -7.504,2.005c-0.958,-0.766 -1.631,-1.731 -2.248,-2.721c-1.634,-2.62 -2.659,-5.455 -3.654,-8.302c-1.7,-4.858 -3.444,-9.702 -5.104,-14.571c-2.067,-6.057 -4.054,-12.137 -6.102,-18.201c-0.95,-2.814 -1.962,-5.613 -2.944,-8.419c-0.041,-0.111 -0.112,-0.191 -0.375,-0.228c-0.013,0.274 -0.039,0.551 -0.039,0.827c-0.011,2.68 0.067,5.362 -0.045,8.04c-0.227,5.473 0.025,10.945 -0.119,16.416c-0.19,7.135 0.019,14.267 0.015,21.398c-0.002,0.835 -0.021,1.661 -0.272,2.47c-0.442,1.444 -1.137,1.909 -2.814,1.899c-3.418,-0.022 -5.669,-1.925 -5.84,-4.95c-0.03,-0.529 -0.028,-1.058 -0.032,-1.584c-0.17,-22.387 -0.341,-44.773 -0.518,-67.158c-0.004,-0.794 -0.011,-1.584 0.324,-2.341c0.244,-0.555 0.617,-1.066 1.297,-1.144c2.581,-0.293 4.996,0.03 6.955,1.73c0.785,0.685 1.276,1.505 1.342,2.491c0.024,0.39 0.149,0.74 0.354,1.073c3.032,4.966 4.879,10.346 6.839,15.678c2.119,5.761 4.135,11.557 6.187,17.338c1.185,3.339 2.35,6.685 3.539,10.023c0.175,0.49 0.268,1.017 0.725,1.416Z" style="fill:#f48a81;"/><path d="M76.732,36.527c-0.091,2.421 0.306,4.797 0.772,7.149c0.382,1.927 0.857,3.855 1.91,5.568c0.797,1.297 0.872,1.312 2.331,0.887c0.326,-0.097 0.669,-0.293 0.982,-0.256c1.651,0.194 2.307,-0.94 2.95,-2.087c0.354,-0.631 0.712,-1.265 0.977,-1.934c2.135,-5.356 3.216,-10.866 2.318,-16.632c-0.399,-2.572 -0.995,-5.097 -2.322,-7.389c-0.328,-0.568 -0.561,-1.431 -1.282,-1.424c-0.649,0.004 -0.811,0.874 -1.09,1.402c-0.563,1.073 -1.407,1.543 -2.609,1.457c-0.437,-0.03 -0.882,-0.002 -1.294,-0.177c-0.687,-0.292 -1.116,-0.071 -1.343,0.613c-0.103,0.322 -0.246,0.628 -0.36,0.945c-1.379,3.844 -1.903,7.823 -1.94,11.878m18.533,43.018c-0.015,-1.588 0.009,-3.177 -0.052,-4.761c-0.082,-2.212 -0.401,-4.403 -0.949,-6.549c-0.874,-3.412 -2.344,-6.514 -5.033,-8.945c-1.193,-1.079 -2.27,-1.153 -3.496,-0.162c-1.994,1.61 -3.52,3.556 -4.503,5.932c-2.055,4.957 -2.854,10.175 -3.156,15.46c-0.328,5.721 0.046,11.429 1.276,17.051c0.483,2.207 1.083,4.394 2.4,6.299c1.309,1.897 2.667,2.334 4.922,1.678c1.847,-0.535 3.054,-1.837 4.137,-3.279c1.687,-2.249 2.501,-4.867 3.12,-7.554c1.153,-4.995 1.515,-10.062 1.334,-15.17m-28.335,5.192c0.009,-5.878 0.35,-11.725 1.886,-17.439c0.915,-3.408 2.154,-6.688 4.146,-9.655c0.49,-0.729 0.803,-0.878 -0.203,-1.769c-2.501,-2.223 -3.954,-5.118 -4.86,-8.255c-1.297,-4.482 -1.586,-9.059 -1.195,-13.71c0.339,-4.005 1.124,-7.887 2.559,-11.651c1.146,-3.003 2.799,-5.708 4.892,-8.157c0.57,-0.667 1.267,-1.198 1.992,-1.687c0.891,-0.605 1.852,-0.94 2.872,-0.353c0.648,0.374 1.125,-0.002 1.636,-0.23c3.146,-1.409 6.351,-1.495 9.508,-0.182c2.741,1.145 4.685,3.241 6.192,5.728c1.903,3.144 2.909,6.599 3.424,10.194c1.04,7.27 -0.008,14.267 -2.986,20.991c-0.51,1.149 -1.124,2.24 -1.798,3.3c-0.276,0.434 -0.347,0.742 0.145,1.081c5.609,3.869 8.064,9.573 9.432,15.89c0.572,2.636 0.797,5.315 0.973,8.002c0.206,3.079 0.152,6.154 -0.01,9.22c-0.328,6.134 -1.431,12.118 -4.133,17.72c-1.582,3.281 -3.813,6.061 -7.035,7.908c-4.911,2.817 -10.114,3.382 -15.449,1.399c-3.427,-1.272 -5.799,-3.825 -7.549,-6.939c-1.767,-3.147 -2.777,-6.554 -3.427,-10.074c-0.692,-3.742 -1.023,-7.523 -1.012,-11.332" style="fill:#f48a81;"/><path d="M26.481,61.591c0.84,-0.652 1.278,-1.409 1.783,-2.092c5.975,-8.049 10.075,-16.989 12.928,-26.526c1.436,-4.801 2.671,-9.644 3.483,-14.588c0.203,-1.234 0.343,-2.48 0.803,-3.655c0.732,-1.876 1.453,-2.247 3.46,-1.98c1.04,0.141 2.014,0.419 2.88,0.976c1.682,1.081 2.727,2.486 2.696,4.631c-0.039,2.482 -0.533,4.862 -1.142,7.24c-1.396,5.449 -2.697,10.922 -4.495,16.265c-3.183,9.455 -7.874,18.106 -14.104,25.937c-0.618,0.775 -0.631,1.308 -0.204,2.167c4.401,8.844 9.657,17.149 15.869,24.864c2.639,3.279 5.397,6.462 8.528,9.306c1.439,1.304 2.812,2.668 3.893,4.291c0.837,1.256 0.736,2.098 -0.542,2.929c-2.315,1.506 -4.911,2.112 -7.654,1.883c-1.34,-0.112 -2.477,-0.863 -3.459,-1.756c-0.715,-0.654 -1.429,-1.328 -2.02,-2.087c-4.129,-5.301 -8.371,-10.519 -12.154,-16.076c-3.157,-4.64 -6.106,-9.398 -8.663,-14.385c-0.196,-0.387 -0.39,-0.775 -0.604,-1.153c-0.155,-0.278 -0.248,-0.704 -0.703,-0.554c-0.346,0.116 -0.508,0.451 -0.534,0.802c-0.032,0.43 -0.021,0.866 -0.017,1.297c0.065,7.75 0.125,15.497 0.205,23.248c0.016,1.495 -0.034,2.979 -0.181,4.464c-0.239,2.426 -1.433,3.32 -3.882,3.113c-3.518,-0.303 -5.37,-2.389 -5.897,-5.403c-0.141,-0.814 -0.223,-1.621 -0.237,-2.438c-0.139,-8.853 -0.478,-17.702 -0.559,-26.56c-0.037,-3.946 0.307,-7.881 0.295,-11.828c-0.02,-6.402 -0.362,-12.79 -0.853,-19.169c-0.465,-6.038 -1.058,-12.067 -1.615,-18.1c-0.331,-3.588 -0.935,-7.153 -0.967,-10.768c-0.003,-0.239 -0.012,-0.482 -0.011,-0.721c0.004,-1.782 0.657,-2.667 2.394,-2.874c2.155,-0.257 4.295,-0.103 6.291,0.861c1.635,0.79 2.687,2.074 3.03,3.839c0.192,0.984 0.364,1.981 0.343,3.004c-0.091,4.526 0.252,9.04 0.529,13.552c0.174,2.836 0.15,5.676 0.34,8.507c0.38,5.719 0.262,11.446 0.432,17.17c0.022,0.722 0.102,1.434 0.315,2.367Z" style="fill:#f48a81;"/></g></svg>